<svg width="16" height="16" viewBox="0 0 16 16" fill="none" xmlns="http://www.w3.org/2000/svg">
<path d="M7.2 8.8V11.2C7.2 11.4267 7.2768 11.6168 7.4304 11.7704C7.584 11.924 7.77387 12.0005 8 12C8.22667 12 8.4168 11.9232 8.5704 11.7696C8.724 11.616 8.80053 11.4261 8.8 11.2V8.8H11.2C11.4267 8.8 11.6168 8.7232 11.7704 8.5696C11.924 8.416 12.0005 8.22613 12 8C12 7.77333 11.9232 7.5832 11.7696 7.4296C11.616 7.276 11.4261 7.19947 11.2 7.2H8.8V4.8C8.8 4.57333 8.7232 4.3832 8.5696 4.2296C8.416 4.076 8.22613 3.99947 8 4C7.77333 4 7.5832 4.0768 7.4296 4.2304C7.276 4.384 7.19947 4.57387 7.2 4.8V7.2H4.8C4.57333 7.2 4.3832 7.2768 4.2296 7.4304C4.076 7.584 3.99947 7.77387 4 8C4 8.22667 4.0768 8.4168 4.2304 8.5704C4.384 8.724 4.57387 8.80053 4.8 8.8H7.2ZM8 16C6.89333 16 5.85333 15.7899 4.88 15.3696C3.90667 14.9493 3.06 14.3795 2.34 13.66C1.62 12.94 1.05013 12.0933 0.6304 11.12C0.210667 10.1467 0.000533333 9.10667 0 8C0 6.89333 0.210133 5.85333 0.6304 4.88C1.05067 3.90667 1.62053 3.06 2.34 2.34C3.06 1.62 3.90667 1.05013 4.88 0.6304C5.85333 0.210667 6.89333 0.000533333 8 0C9.10667 0 10.1467 0.210133 11.12 0.6304C12.0933 1.05067 12.94 1.62053 13.66 2.34C14.38 3.06 14.9501 3.90667 15.3704 4.88C15.7907 5.85333 16.0005 6.89333 16 8C16 9.10667 15.7899 10.1467 15.3696 11.12C14.9493 12.0933 14.3795 12.94 13.66 13.66C12.94 14.38 12.0933 14.9501 11.12 15.3704C10.1467 15.7907 9.10667 16.0005 8 16ZM8 14.4C9.78667 14.4 11.3 13.78 12.54 12.54C13.78 11.3 14.4 9.78667 14.4 8C14.4 6.21333 13.78 4.7 12.54 3.46C11.3 2.22 9.78667 1.6 8 1.6C6.21333 1.6 4.7 2.22 3.46 3.46C2.22 4.7 1.6 6.21333 1.6 8C1.6 9.78667 2.22 11.3 3.46 12.54C4.7 13.78 6.21333 14.4 8 14.4Z" fill="white"/>
</svg>
