<svg width="16" height="18" viewBox="0 0 16 18" fill="none" xmlns="http://www.w3.org/2000/svg">
<path d="M1.77778 18C1.28889 18 0.870223 17.8236 0.521779 17.4708C0.173335 17.118 -0.000591083 16.6944 1.50915e-06 16.2V3.6C1.50915e-06 3.105 0.174224 2.6811 0.522668 2.3283C0.871112 1.9755 1.28948 1.7994 1.77778 1.8H2.66667V0H4.44445V1.8H11.5556V0H13.3333V1.8H14.2222C14.7111 1.8 15.1298 1.9764 15.4782 2.3292C15.8267 2.682 16.0006 3.1056 16 3.6V16.2C16 16.695 15.8258 17.1189 15.4773 17.4717C15.1289 17.8245 14.7105 18.0006 14.2222 18H1.77778ZM1.77778 16.2H14.2222V7.2H1.77778V16.2Z" fill="black"/>
</svg>
