<svg width="16" height="22" viewBox="0 0 16 22" fill="none" xmlns="http://www.w3.org/2000/svg">
<path d="M2.47433 8.36812L0.539888 6.43427C0.241729 6.13621 0.241693 5.65286 0.539805 5.35475C0.837918 5.05663 1.32127 5.05667 1.61933 5.35483L3.55318 7.28927H15.1825C15.3014 7.28926 15.4187 7.31705 15.5249 7.37043C15.6312 7.4238 15.7235 7.50128 15.7945 7.59667C15.8655 7.69207 15.9133 7.80274 15.9339 7.91986C15.9545 8.03698 15.9475 8.1573 15.9134 8.27122L14.0822 14.375C14.0351 14.5323 13.9386 14.6701 13.8069 14.7681C13.6752 14.8661 13.5155 14.919 13.3513 14.919H4.00028V16.445H11.63C12.0514 16.445 12.393 16.7866 12.393 17.208C12.393 17.6293 12.0514 17.9709 11.63 17.9709H3.23731C3.03495 17.9709 2.84089 17.8905 2.6978 17.7475C2.55471 17.6044 2.47433 17.4103 2.47433 17.208V8.36812ZM4.00028 8.81522V13.3931H12.7837L14.157 8.81522H4.00028ZM3.61879 21.0228C3.31526 21.0228 3.02416 20.9023 2.80954 20.6876C2.59491 20.473 2.47433 20.1819 2.47433 19.8784C2.47433 19.5748 2.59491 19.2837 2.80954 19.0691C3.02416 18.8545 3.31526 18.7339 3.61879 18.7339C3.92232 18.7339 4.21342 18.8545 4.42805 19.0691C4.64268 19.2837 4.76326 19.5748 4.76326 19.8784C4.76326 20.1819 4.64268 20.473 4.42805 20.6876C4.21342 20.9023 3.92232 21.0228 3.61879 21.0228ZM12.7745 21.0228C12.471 21.0228 12.1799 20.9023 11.9652 20.6876C11.7506 20.473 11.63 20.1819 11.63 19.8784C11.63 19.5748 11.7506 19.2837 11.9652 19.0691C12.1799 18.8545 12.471 18.7339 12.7745 18.7339C13.078 18.7339 13.3691 18.8545 13.5838 19.0691C13.7984 19.2837 13.919 19.5748 13.919 19.8784C13.919 20.1819 13.7984 20.473 13.5838 20.6876C13.3691 20.9023 13.078 21.0228 12.7745 21.0228Z" fill="#04103B"/>
<path d="M7.53693 2.89001L9.4269 1.00004L11.3169 2.89001" stroke="#04103B" stroke-width="2" stroke-linecap="round" stroke-linejoin="round"/>
<path d="M9.42114 1.00575V6.11461" stroke="#04103B" stroke-width="2" stroke-linecap="round" stroke-linejoin="round"/>
</svg>
