<svg width="110" height="113" viewBox="0 0 110 113" fill="none" xmlns="http://www.w3.org/2000/svg">
<path fill-rule="evenodd" clip-rule="evenodd" d="M62.0514 16.0846L63.9105 16.4479L64.0262 15.8558L62.6513 13.0144L62.6262 13.1427L57.3605 0.363282L55.5013 0L52.7148 14.2602L54.574 14.6235L56.7896 3.28478L62.0514 16.0846ZM64.8423 11.6793L66.697 2.18768L64.8379 1.8244L63.4951 8.69619L64.8423 11.6793ZM38.7399 15.0653C39.9413 15.4888 41.2049 15.5843 42.5308 15.352C43.8704 15.1172 45.0331 14.5964 46.0188 13.7896C47.0021 12.9692 47.7112 11.9503 48.1459 10.7329C48.5807 9.51544 48.6747 8.20276 48.4279 6.79482C48.1811 5.38689 47.6464 4.18441 46.8235 3.1874C46.0007 2.19039 44.9886 1.48015 43.7872 1.05669C42.5835 0.619553 41.3118 0.518374 39.9722 0.753151C38.6463 0.985532 37.4917 1.51194 36.5083 2.33239C35.5226 3.13916 34.8067 4.15928 34.3607 5.39276C33.926 6.61018 33.8308 7.91602 34.0751 9.31029C34.3195 10.7046 34.8543 11.907 35.6795 12.9177C36.516 13.9123 37.5362 14.6282 38.7399 15.0653ZM44.8108 12.5643C44.0994 13.168 43.2448 13.5573 42.2469 13.7321C41.2491 13.907 40.3062 13.8328 39.4182 13.5094C38.544 13.1836 37.799 12.6308 37.1833 11.8511C36.5813 11.069 36.1809 10.1106 35.982 8.97609C35.7808 7.82787 35.8314 6.79048 36.134 5.86393C36.4478 4.92131 36.9604 4.14815 37.6718 3.54444C38.3831 2.94074 39.2446 2.55024 40.2561 2.37296C41.2676 2.19568 42.2105 2.26995 43.0848 2.59575C43.9591 2.92156 44.6972 3.47552 45.2992 4.25762C45.9125 5.02367 46.3198 5.9808 46.521 7.12902C46.7199 8.26357 46.6624 9.30216 46.3486 10.2448C46.0484 11.185 45.5358 11.9582 44.8108 12.5643ZM17.2109 18.6886C16.4639 17.4862 16.0649 16.2392 16.014 14.9475C15.9557 13.644 16.2238 12.4318 16.8182 11.3111C17.4243 10.1829 18.2991 9.2637 19.4426 8.55333C20.7864 7.71847 22.1607 7.31396 23.5655 7.33982C24.9702 7.36568 26.2723 7.83109 27.4717 8.73607L25.5444 9.93344C24.7411 9.40317 23.8909 9.13903 22.9935 9.14103C22.108 9.1357 21.2173 9.41132 20.3214 9.96789C19.4609 10.5025 18.8132 11.1826 18.3785 12.0081C17.9438 12.8337 17.7626 13.7386 17.835 14.7229C17.9001 15.6954 18.2402 16.6768 18.8553 17.667C19.4632 18.6454 20.1923 19.3851 21.0426 19.8861C21.8857 20.3753 22.7736 20.6079 23.7063 20.5839C24.639 20.5599 25.5356 20.2807 26.3961 19.7461C27.292 19.1895 27.9374 18.519 28.3323 17.7345C28.7316 16.9309 28.8715 16.0516 28.752 15.0966L30.6793 13.8992C30.9519 15.3636 30.7887 16.7313 30.1895 18.0021C29.5829 19.2611 28.6078 20.3081 27.2639 21.1429C26.1205 21.8533 24.9125 22.2362 23.6399 22.2916C22.3717 22.3279 21.17 22.0371 20.0345 21.4191C18.8991 20.8011 17.9579 19.891 17.2109 18.6886ZM19.1229 27.4601L8.58813 17.4835L7.2856 18.8589L17.8204 28.8355L19.1229 27.4601ZM51.1625 20.3576C51.5647 20.3576 51.9659 20.3675 52.3657 20.3871L52.3412 20.887L52.3167 21.3868C51.9332 21.368 51.5483 21.3585 51.1625 21.3585C50.7767 21.3585 50.3919 21.368 50.0084 21.3868L49.9839 20.887L49.9593 20.3871C50.3592 20.3675 50.7603 20.3576 51.1625 20.3576ZM47.6379 21.118L47.5645 20.6229C46.7687 20.741 45.9811 20.8978 45.2044 21.0924L45.326 21.5779L45.4476 22.0633C46.1926 21.8766 46.9481 21.7262 47.7113 21.613L47.6379 21.118ZM43.0702 22.2622L42.9016 21.791C42.1459 22.0614 41.4039 22.3688 40.6784 22.7119L40.8923 23.1643L41.1063 23.6167C41.8022 23.2875 42.5139 22.9927 43.2388 22.7334L43.0702 22.2622ZM38.8134 24.2755L38.5561 23.8462C37.8693 24.2579 37.2014 24.7039 36.5552 25.1831L36.8534 25.5851L37.1515 25.987C37.7713 25.5273 38.4118 25.0995 39.0706 24.7047L38.8134 24.2755ZM35.0312 27.0806L34.6951 26.7098C34.3985 26.9786 34.1078 27.2553 33.8234 27.5397C33.5391 27.8241 33.2624 28.1148 32.9935 28.4114L33.3643 28.7475L33.7351 29.0835C33.993 28.799 34.2584 28.5202 34.5312 28.2474C34.804 27.9746 35.0828 27.7092 35.3673 27.4513L35.0312 27.0806ZM31.8688 30.5696L31.4669 30.2715C30.9876 30.9177 30.5416 31.5855 30.13 32.2724L30.5592 32.5296L30.9884 32.7869C31.3833 32.1281 31.8111 31.4875 32.2707 30.8677L31.8688 30.5696ZM29.448 34.6086L28.9957 34.3946C28.6525 35.1202 28.3452 35.8622 28.0748 36.6179L28.5459 36.7865L29.0171 36.9551C29.2765 36.2302 29.5713 35.5185 29.9004 34.8225L29.448 34.6086ZM27.8616 39.0422L27.3762 38.9206C27.1816 39.6974 27.0247 40.485 26.9067 41.2808L27.4017 41.3542L27.8967 41.4276C28.0099 40.6643 28.1604 39.9089 28.347 39.1638L27.8616 39.0422ZM27.1707 43.7001L26.6709 43.6756C26.6512 44.0754 26.6414 44.4766 26.6414 44.8788C26.6414 45.2712 26.6525 45.6677 26.6744 46.0677L27.1741 46.0404L27.6738 46.0131C27.6529 45.6305 27.6422 45.2523 27.6422 44.8788C27.6422 44.493 27.6517 44.1082 27.6705 43.7247L27.1707 43.7001ZM27.416 48.3761L26.9211 48.4501C27.0365 49.2215 27.186 50.0032 27.3664 50.793L27.8542 50.6815L28.3421 50.5701C28.1669 49.803 28.0223 49.0463 27.9109 48.302L27.416 48.3761ZM28.4534 52.9621L27.9735 53.1039C28.1962 53.8576 28.4435 54.6164 28.7129 55.3785L29.1847 55.2118L29.6565 55.045C29.3926 54.2982 29.1507 53.556 28.9333 52.8203L28.4534 52.9621ZM30.0253 57.4282L29.5614 57.6157C29.8574 58.3481 30.1712 59.0817 30.5007 59.8151L30.9572 59.61L31.4136 59.405C31.0891 58.6824 30.7803 57.9605 30.4893 57.2406L30.0253 57.4282ZM32.5993 64.1089C32.227 63.4013 31.8654 62.6905 31.5165 61.9778L31.9659 61.7577L32.4154 61.5377C32.7598 62.2412 33.117 62.9434 33.4851 63.6428L33.0422 63.8758L32.5993 64.1089ZM34.1773 65.9655L33.7406 66.2099C34.1303 66.9062 34.5286 67.5976 34.9333 68.2826L35.3641 68.0281L35.795 67.7736C35.394 67.0948 34.9997 66.4102 34.614 65.7211L34.1773 65.9655ZM36.5969 70.0648L36.1715 70.3283C36.5939 71.0102 37.0209 71.684 37.4504 72.3481L37.8706 72.0764L38.2908 71.8047C37.8647 71.1457 37.4412 70.4774 37.0223 69.8012L36.5969 70.0648ZM39.1811 74.0636L38.7657 74.3428C39.2162 75.0129 39.6669 75.6708 40.1153 76.3147L40.526 76.0287L40.9366 75.7426C40.4911 75.1031 40.0436 74.4497 39.5964 73.7844L39.1811 74.0636ZM41.9061 77.977L41.5 78.2694C41.9775 78.9326 42.4495 79.5772 42.913 80.201L43.3147 79.9025L43.7164 79.6041C43.2558 78.9841 42.7867 78.3435 42.3122 77.6846L41.9061 77.977ZM44.7462 81.8007L44.3488 82.1049C44.8563 82.768 45.3483 83.4005 45.8199 83.999L46.2129 83.6893L46.606 83.3796C46.1371 82.7846 45.6481 82.1558 45.1436 81.4965L44.7462 81.8007ZM47.6942 85.5421L47.3056 85.8573C47.861 86.542 48.3721 87.1609 48.8281 87.706L49.2119 87.385L49.5958 87.0639C49.1428 86.5224 48.6349 85.9074 48.0828 85.2268L47.6942 85.5421ZM50.7648 89.2091L50.3869 89.5372L50.4958 89.6624C50.624 89.8096 50.7352 89.9363 50.828 90.0417C51.0456 90.2887 51.1625 90.4181 51.1625 90.4181C51.1625 90.4181 51.2794 90.2887 51.4971 90.0417C51.5899 89.9363 51.701 89.8096 51.8292 89.6624L51.9381 89.5372L51.5602 89.2091L51.1823 88.881L51.1625 88.9039L51.1427 88.881L50.7648 89.2091ZM53.1131 87.385L53.497 87.706C53.953 87.1609 54.4641 86.542 55.0195 85.8573L54.6309 85.5421L54.2422 85.2268C53.6902 85.9074 53.1823 86.5224 52.7293 87.0639L53.1131 87.385ZM56.1121 83.6893L56.5052 83.999C56.9768 83.4005 57.4687 82.768 57.9763 82.1049L57.5789 81.8007L57.1815 81.4965C56.677 82.1558 56.1879 82.7846 55.7191 83.3796L56.1121 83.6893ZM59.0104 79.9025L59.4121 80.201C59.8755 79.5772 60.3476 78.9326 60.8251 78.2694L60.419 77.977L60.0129 77.6846C59.5384 78.3435 59.0693 78.9841 58.6087 79.6041L59.0104 79.9025ZM61.7991 76.0286L62.2097 76.3147C62.6582 75.6708 63.1089 75.0129 63.5593 74.3428L63.144 74.0636L62.7287 73.7844C62.2815 74.4497 61.8339 75.1031 61.3885 75.7426L61.7991 76.0286ZM64.4545 72.0764L64.8747 72.3481C65.3041 71.684 65.7312 71.0102 66.1536 70.3283L65.7282 70.0648L65.3028 69.8012C64.8839 70.4774 64.4603 71.1457 64.0342 71.8047L64.4545 72.0764ZM66.961 68.0281L67.3918 68.2826C67.7965 67.5976 68.1947 66.9062 68.5844 66.2099L68.1478 65.9655L67.7111 65.7211C67.3254 66.4102 66.931 67.0948 66.5301 67.7736L66.961 68.0281ZM70.8086 61.9778C70.4597 62.6905 70.098 63.4013 69.7257 64.1089L69.2829 63.8758L68.84 63.6428C69.208 62.9434 69.5653 62.2412 69.9097 61.5377L70.3592 61.7577L70.8086 61.9778ZM71.3679 59.61L71.8244 59.8151C72.1538 59.0817 72.4677 58.3481 72.7637 57.6157L72.2997 57.4282L71.8358 57.2406C71.5448 57.9605 71.236 58.6824 70.9114 59.405L71.3679 59.61ZM73.1404 55.2118L73.6122 55.3785C73.8815 54.6164 74.1289 53.8576 74.3516 53.1039L73.8716 52.9621L73.3917 52.8203C73.1743 53.556 72.9325 54.2982 72.6685 55.045L73.1404 55.2118ZM74.4708 50.6815L74.9587 50.793C75.1391 50.0032 75.2886 49.2215 75.404 48.4501L74.909 48.3761L74.4141 48.302C74.3028 49.0463 74.1582 49.803 73.983 50.5701L74.4708 50.6815ZM75.151 46.0404L75.6507 46.0677C75.6725 45.6677 75.6837 45.2712 75.6837 44.8788C75.6837 44.4766 75.6738 44.0754 75.6542 43.6756L75.1544 43.7001L74.6545 43.7247C74.6734 44.1082 74.6828 44.493 74.6828 44.8788C74.6828 45.2523 74.6722 45.6305 74.6513 46.0131L75.151 46.0404ZM74.9234 41.3542L75.4184 41.2808C75.3004 40.485 75.1435 39.6974 74.9489 38.9206L74.4635 39.0422L73.978 39.1638C74.1647 39.9089 74.3152 40.6643 74.4284 41.4276L74.9234 41.3542ZM73.7791 36.7865L74.2503 36.6179C73.9799 35.8622 73.6726 35.1202 73.3294 34.3946L72.877 34.6086L72.4246 34.8226C72.7538 35.5185 73.0486 36.2302 73.308 36.9551L73.7791 36.7865ZM71.7659 32.5296L72.1951 32.2724C71.7835 31.5855 71.3375 30.9177 70.8582 30.2715L70.4563 30.5696L70.0543 30.8677C70.514 31.4875 70.9418 32.1281 71.3366 32.7869L71.7659 32.5296ZM68.9608 28.7475L69.3316 28.4114C69.0627 28.1148 68.786 27.8241 68.5016 27.5397C68.2172 27.2553 67.9266 26.9786 67.63 26.7098L67.2939 27.0806L66.9578 27.4513C67.2423 27.7092 67.5211 27.9746 67.7939 28.2474C68.0667 28.5202 68.3321 28.799 68.59 29.0835L68.9608 28.7475ZM65.4717 25.5851L65.7698 25.1831C65.1237 24.7039 64.4558 24.2579 63.769 23.8462L63.5117 24.2755L63.2544 24.7047C63.9132 25.0995 64.5538 25.5273 65.1736 25.987L65.4717 25.5851ZM61.4327 23.1643L61.6467 22.7119C60.9211 22.3688 60.1792 22.0614 59.4235 21.791L59.2549 22.2622L59.0863 22.7334C59.8111 22.9927 60.5228 23.2875 61.2188 23.6167L61.4327 23.1643ZM56.9991 21.5779L57.1207 21.0924C56.344 20.8978 55.5564 20.741 54.7606 20.6229L54.6871 21.118L54.6137 21.613C55.377 21.7262 56.1325 21.8766 56.8775 22.0633L56.9991 21.5779ZM46.0316 51.8113C47.3924 53.1721 49.238 53.9366 51.1625 53.9366C52.1154 53.9366 53.059 53.749 53.9394 53.3843C54.8197 53.0196 55.6197 52.4851 56.2935 51.8113C56.9673 51.1375 57.5018 50.3376 57.8664 49.4572C58.2311 48.5769 58.4188 47.6333 58.4188 46.6804C58.4188 44.7559 57.6543 42.9102 56.2935 41.5494C54.9327 40.1886 53.087 39.4241 51.1625 39.4241C49.238 39.4241 47.3924 40.1886 46.0316 41.5494C44.6707 42.9102 43.9062 44.7559 43.9062 46.6804C43.9062 48.6049 44.6707 50.4505 46.0316 51.8113ZM36.7958 32.3137C40.6061 28.5034 45.774 26.3628 51.1625 26.3628C56.5511 26.3628 61.7189 28.5034 65.5292 32.3137C69.3395 36.124 71.4801 41.2918 71.4801 46.6804C71.4801 61.9185 51.1625 84.413 51.1625 84.413C51.1625 84.413 30.845 61.9185 30.845 46.6804C30.845 41.2918 32.9856 36.124 36.7958 32.3137ZM16.4018 56.5144C16.7652 56.2369 17.1344 55.9594 17.5093 55.6819L16.7778 54.6937C16.3981 54.9748 16.024 55.256 15.6557 55.5372L16.4018 56.5144ZM12.1374 60.0075C12.8088 59.4134 13.5085 58.819 14.2358 58.2244L13.4576 57.2726C12.7187 57.8767 12.0068 58.4815 11.3227 59.0869L12.1374 60.0075ZM8.20088 63.844C8.80314 63.1894 9.442 62.5344 10.1165 61.879L9.25979 60.9973C8.56997 61.6676 7.915 62.339 7.29613 63.0116L8.20088 63.844ZM4.79877 68.1128C5.28955 67.3818 5.82902 66.6499 6.41602 65.9172L5.45657 65.1486C4.84966 65.9061 4.28951 66.6657 3.77803 67.4276L4.79877 68.1128ZM2.28906 72.9006C2.59517 72.0818 2.96618 71.2619 3.4007 70.4407L2.31402 69.8657C1.85663 70.7302 1.46345 71.5983 1.13751 72.47L2.28906 72.9006ZM1.2289 78.125C1.25422 77.2414 1.35902 76.3582 1.54119 75.475L0.337131 75.2266C0.14098 76.1777 0.0274417 77.1321 0 78.0898L1.2289 78.125ZM2.02831 83.381C1.73712 82.5114 1.52687 81.6458 1.39435 80.7837L0.179215 80.9705C0.322686 81.9038 0.549813 82.8375 0.862519 83.7714L2.02831 83.381ZM4.44783 88.1799C3.92247 87.4008 3.46464 86.6257 3.07194 85.8546L1.97641 86.4125C2.39329 87.2311 2.87697 88.0493 3.42853 88.8672L4.44783 88.1799ZM17.5913 79.1107C17.878 78.8062 18.1924 78.5496 18.5297 78.3372L17.8744 77.297C17.4502 77.5642 17.0549 77.8869 16.6962 78.268C16.3737 78.6105 16.0474 78.9646 15.7197 79.3297L16.6345 80.151C16.9553 79.7937 17.275 79.4467 17.5913 79.1107ZM20.8492 77.557C21.6532 77.4671 22.5126 77.5205 23.3873 77.7036L23.6391 76.5002C22.6558 76.2945 21.6643 76.2288 20.7126 76.3352L20.8492 77.557ZM13.1201 84.5589C13.6596 83.7796 14.2262 83.0265 14.8053 82.3034L13.8457 81.5349C13.251 82.2775 12.667 83.0536 12.1093 83.8591L13.1201 84.5589ZM10.3656 89.4224C10.7344 88.5738 11.1573 87.7417 11.6209 86.9299L10.5532 86.3202C10.0701 87.1664 9.62661 88.0384 9.23806 88.9324L10.3656 89.4224ZM25.842 78.5438C26.6226 78.9163 27.3733 79.3793 28.0611 79.9156L28.8171 78.9461C28.0586 78.3547 27.2319 77.8448 26.3714 77.4342L25.842 78.5438ZM6.0823 90.3537C6.34084 90.6654 6.61029 90.9776 6.8908 91.2905C7.3397 91.4906 7.7738 91.6902 8.19414 91.8884C8.21105 91.8256 8.22828 91.763 8.24582 91.7005L9.42953 92.0326C9.17993 92.9222 8.99994 93.824 8.90287 94.7345L7.68039 94.6041C7.76752 93.787 7.91598 92.9803 8.11624 92.1867L7.72064 93.0243C7.25513 92.8045 6.77286 92.5829 6.27226 92.3609L6.1529 92.308L6.06536 92.2111C5.74232 91.8536 5.43259 91.4961 5.13608 91.1386L6.0823 90.3537ZM13.9712 94.8344C13.5577 94.6202 13.1294 94.3945 12.6813 94.1584L12.6144 94.1232C12.1427 93.8747 11.6498 93.6152 11.134 93.3481L10.5687 94.4398C11.0802 94.7046 11.5695 94.9622 12.0414 95.2109L12.1094 95.2467L12.1107 95.2474L12.1121 95.2481C12.5581 95.4831 12.9891 95.7102 13.4057 95.9261L13.9712 94.8344ZM29.9099 81.7367C30.455 82.4248 30.8929 83.1669 31.1929 83.9428L32.3396 83.4994C31.9899 82.5948 31.486 81.7463 30.8735 80.9732L29.9099 81.7367ZM9.38337 100.15C9.11562 99.2515 8.94945 98.357 8.87198 97.4695L7.64723 97.5764C7.73177 98.545 7.91321 99.5214 8.20512 100.501L9.38337 100.15ZM31.6496 86.3975C31.6394 87.1881 31.4762 88.0037 31.1243 88.8312L32.2557 89.3122C32.6693 88.3396 32.8666 87.3662 32.8789 86.4134L31.6496 86.3975ZM19.7156 96.9115C18.7902 96.8506 17.8498 96.5947 16.8112 96.1788L16.3541 97.3201C17.4654 97.7651 18.5375 98.066 19.6349 98.1382L19.7156 96.9115ZM11.1024 103.883C10.8498 103.484 10.6208 103.084 10.4141 102.686L9.32285 103.252C9.54593 103.682 9.79231 104.111 10.063 104.54C10.3572 105.006 10.6589 105.452 10.969 105.878L11.9635 105.156C11.6701 104.752 11.3832 104.328 11.1024 103.883ZM29.7671 90.9934C29.5 91.3109 29.2007 91.629 28.8671 91.9466C28.4633 92.3311 28.0739 92.6898 27.6977 93.0239L28.5139 93.9432C28.902 93.5987 29.3018 93.2302 29.7148 92.837C30.0794 92.49 30.41 92.1389 30.7079 91.7848L29.7671 90.9934ZM25.2547 94.9805C24.2787 95.6636 23.4036 96.14 22.5918 96.4503L23.0307 97.5987C23.9584 97.2441 24.9227 96.7135 25.9597 95.9877L25.2547 94.9805ZM16.2877 109.343C15.4573 108.817 14.6764 108.192 13.9372 107.466L13.0756 108.343C13.8727 109.126 14.7212 109.806 15.6296 110.382L16.2877 109.343ZM21.9234 111.346C20.8783 111.202 19.9022 110.969 18.9864 110.648L18.5797 111.808C19.5785 112.159 20.6351 112.41 21.7557 112.564L21.9234 111.346ZM28.0309 111.29C26.9549 111.426 25.9353 111.502 24.9674 111.517L24.9872 112.747C26.0051 112.73 27.07 112.651 28.1855 112.509L28.0309 111.29ZM34.1042 110.047C33.0561 110.329 32.05 110.571 31.0835 110.772L31.3341 111.976C32.3262 111.769 33.3555 111.522 34.4239 111.234L34.1042 110.047ZM40.0586 108.175C39.0387 108.535 38.0516 108.866 37.0958 109.168L37.4666 110.34C38.4364 110.034 39.4364 109.698 40.4678 109.334L40.0586 108.175ZM44.4623 106.523C43.9675 106.718 43.4796 106.908 42.9984 107.092L43.4374 108.24C43.9229 108.055 44.415 107.864 44.9137 107.667L44.4623 106.523ZM44.9916 109.775C44.8666 109.774 44.7798 109.735 44.7314 109.657C44.7185 109.636 44.6936 109.608 44.6651 109.576C44.5864 109.487 44.4797 109.366 44.5196 109.283L45.902 106.278L42.9099 106.179C42.7932 106.178 42.4537 105.998 42.4041 105.918C42.3545 105.839 42.3569 105.743 42.4112 105.63C42.4654 105.517 42.5539 105.423 42.6765 105.347C42.7992 105.27 42.9229 105.233 43.0477 105.234L47.2532 105.275C47.3032 105.275 47.344 105.284 47.3756 105.301C47.4072 105.318 47.4323 105.342 47.4509 105.373C47.4698 105.403 47.48 105.436 47.4814 105.472C47.4829 105.508 47.4729 105.548 47.4514 105.593L45.6228 109.39C45.5722 109.496 45.4855 109.586 45.3629 109.663C45.2402 109.739 45.1165 109.777 44.9916 109.775ZM75.1643 5.78274L69.0665 18.9482L67.3477 18.1521L73.4454 4.98662L75.1643 5.78274ZM79.9353 12.0127C78.7272 12.4728 77.6724 13.2485 76.7709 14.3398C75.8694 15.4311 75.3067 16.6134 75.083 17.8865C74.8592 19.1597 74.9667 20.3915 75.4053 21.5819C75.8635 22.7705 76.6115 23.7934 77.6493 24.6507C78.869 25.6583 80.1722 26.2489 81.5589 26.4224C82.9545 26.5852 84.3028 26.304 85.6039 25.5788L83.8546 24.1337C82.9875 24.5514 82.1095 24.6991 81.2205 24.5768C80.3511 24.4526 79.5098 24.0546 78.6967 23.3829C77.9157 22.7377 77.3651 21.9769 77.0451 21.1005C76.725 20.2241 76.6625 19.3084 76.8574 18.3534C77.0611 17.3876 77.5298 16.4608 78.2634 15.5728C79.0058 14.674 79.8276 14.0388 80.7286 13.6672C81.6385 13.2848 82.554 13.168 83.4751 13.3169C84.3961 13.4658 85.2472 13.8628 86.0282 14.508C86.8413 15.1797 87.3865 15.9361 87.6638 16.7771C87.9517 17.627 87.9724 18.5172 87.7258 19.4475L89.4751 20.8926C89.9506 19.4673 89.9766 18.0848 89.5533 16.7451C89.13 15.4053 88.3085 14.2317 87.0888 13.2241C86.051 12.3668 84.9008 11.8306 83.6383 11.6157C82.3866 11.4096 81.1522 11.542 79.9353 12.0127ZM107.464 37.3205L105.663 38.0835L103.704 33.4611L88.5478 39.8843L87.6095 37.6705L102.766 31.2472L100.797 26.6005L102.597 25.8376L107.464 37.3205ZM91.6475 48.2315C90.9249 49.6779 90.6055 51.2544 90.6893 52.9611C90.774 54.6853 91.2467 56.2317 92.1076 57.6003C92.9861 58.9681 94.1577 60.0216 95.6226 60.761C97.0874 61.5003 98.726 61.8255 100.538 61.7365C102.35 61.6475 103.949 61.1633 105.334 60.284C106.72 59.4047 107.774 58.2418 108.496 56.7954C109.237 55.3481 109.564 53.7624 109.48 52.0382C109.396 50.3316 108.915 48.7944 108.036 47.4266C107.175 46.058 106.003 44.9956 104.52 44.2396C103.055 43.5002 101.425 43.1746 99.6308 43.2628C97.8363 43.3509 96.2375 43.8351 94.8345 44.7153C93.45 45.6122 92.3877 46.7843 91.6475 48.2315ZM93.8413 56.2718C93.193 55.2807 92.8373 54.143 92.7742 52.8587C92.7111 51.5743 92.9532 50.3984 93.5004 49.331C94.0485 48.2811 94.862 47.4299 95.9411 46.7773C97.021 46.1422 98.2911 45.7889 99.7514 45.7171C101.229 45.6445 102.528 45.8718 103.647 46.3988C104.785 46.9426 105.678 47.71 106.326 48.701C106.975 49.6921 107.331 50.8386 107.395 52.1406C107.459 53.4425 107.217 54.6184 106.669 55.6683C106.121 56.7181 105.307 57.5605 104.227 58.1956C103.165 58.8473 101.896 59.2095 100.418 59.2821C98.9573 59.3538 97.6583 59.1178 96.5205 58.5741C95.3835 58.0479 94.4905 57.2805 93.8413 56.2718ZM107.084 69.5436L96.0858 65.6935C94.5396 65.1522 93.2615 65.1246 92.2514 65.6109C91.2355 66.1138 90.4918 67.0386 90.0204 68.3853C89.5548 69.7153 89.5651 70.8854 90.0513 71.8955C90.5318 72.9222 91.5451 73.7062 93.0913 74.2475L104.089 78.0976L103.295 80.367L92.3218 76.5256C90.8753 76.0193 89.7552 75.3005 88.9613 74.3694C88.1841 73.4441 87.729 72.3983 87.5961 71.2319C87.4573 70.0822 87.6033 68.8922 88.034 67.6619C88.4647 66.4316 89.0957 65.402 89.9271 64.5733C90.7527 63.7611 91.7578 63.2358 92.9424 62.9973C94.1378 62.7812 95.4588 62.9264 96.9052 63.4328L107.878 67.2741L107.084 69.5436ZM74.5543 86.171C73.5109 86.3401 72.4782 86.7537 71.4563 87.4117C70.39 88.0984 69.5979 88.9018 69.08 89.822C68.5621 90.7421 68.3178 91.6642 68.3471 92.5881C68.3764 93.5121 68.6342 94.3517 69.1206 95.107C69.75 96.0845 70.4681 96.7116 71.2748 96.9882C72.0911 97.2797 72.8961 97.3585 73.6898 97.2245C74.493 97.1053 75.4961 96.8574 76.6992 96.4808C77.696 96.1741 78.4886 95.957 79.077 95.8296C79.66 95.7265 80.229 95.7477 80.7837 95.8933C81.3236 96.0485 81.7747 96.4075 82.1371 96.9703C82.6426 97.7552 82.767 98.5341 82.5105 99.3069C82.2634 100.095 81.7178 100.76 80.8736 101.304C79.9702 101.886 79.0967 102.123 78.2531 102.017C77.419 101.926 76.7742 101.608 76.3186 101.063L74.0971 102.493C74.9881 103.617 76.1338 104.241 77.5341 104.366C78.9197 104.5 80.3381 104.1 81.7895 103.165C82.7966 102.517 83.5782 101.762 84.1342 100.901C84.6755 100.05 84.951 99.16 84.9609 98.2318C84.9707 97.3036 84.7038 96.4174 84.1602 95.5732C83.5403 94.6105 82.8296 93.9787 82.0282 93.6777C81.2215 93.401 80.4287 93.3249 79.6498 93.4493C78.8561 93.5833 77.8625 93.846 76.6689 94.2375C75.6965 94.5494 74.9039 94.7665 74.2912 94.8887C73.6785 95.0109 73.09 94.9918 72.5258 94.8313C71.9615 94.6709 71.4886 94.2945 71.1072 93.7021C70.6208 92.9467 70.5016 92.1435 70.7497 91.2924C70.9925 90.4656 71.5952 89.7422 72.5578 89.1223C73.5649 88.4738 74.4924 88.2222 75.3403 88.3676C76.1829 88.5374 76.8749 88.9612 77.4163 89.6393L79.5711 88.2516C79.0127 87.417 78.2941 86.8216 77.4154 86.4657C76.5462 86.1245 75.5925 86.0263 74.5543 86.171ZM78.9863 82.1808L87.601 83.4972L89.4265 81.2355L83.5665 76.5059L85.0767 74.6348L99.4079 86.2016L97.2217 88.9103L98.0029 87.9161L96.2013 86.6149L96.1559 86.6668L90.9275 82.4469L88.7037 85.2022C87.885 86.2165 87.5178 87.1764 87.6019 88.0819C87.6997 88.9984 88.1667 89.7941 89.0029 90.469C89.8527 91.1549 90.7154 91.4324 91.5908 91.3013C92.4551 91.184 93.3022 90.6113 94.1319 89.5833L94.3704 89.2878L95.7796 90.6971L95.674 90.8279C94.8 91.9108 93.8792 92.673 92.9117 93.1145C91.9331 93.5697 90.9792 93.7279 90.0499 93.5891C89.1207 93.4503 88.2517 93.0545 87.4429 92.4017C86.456 91.6052 85.8179 90.6148 85.5286 89.4306C85.2283 88.2601 85.4139 87.0064 86.0855 85.6695L77.1774 84.422L78.9863 82.1808Z" fill="white"/>
</svg>
