<svg width="82" height="85" viewBox="0 0 82 85" fill="none" xmlns="http://www.w3.org/2000/svg">
<path fill-rule="evenodd" clip-rule="evenodd" d="M46.3161 11.998L47.7029 12.269L47.7592 11.9809L46.6747 9.73965L46.6897 9.66959L42.817 0.270984L41.4302 0L39.3517 10.6371L40.7384 10.9081L42.3912 2.45022L46.3161 11.998ZM48.3679 8.86551L49.7814 1.63186L48.3946 1.36087L47.363 6.64031L48.3679 8.86551ZM28.8703 11.2371C29.7664 11.553 30.709 11.6243 31.6981 11.4509C32.6973 11.2758 33.5646 10.8873 34.2999 10.2855C35.0334 9.67356 35.5623 8.9135 35.8866 8.0054C36.2108 7.09729 36.281 6.11812 36.0969 5.0679C35.9128 4.01767 35.5139 3.12071 34.9001 2.37701C34.2863 1.63331 33.5314 1.10352 32.6353 0.787643C31.7374 0.461571 30.7888 0.386099 29.7895 0.561226C28.8005 0.734567 27.9392 1.12723 27.2057 1.73923C26.4704 2.34102 25.9364 3.10197 25.6037 4.02206C25.2794 4.93017 25.2084 5.90423 25.3907 6.94426C25.573 7.98429 25.9719 8.88125 26.5875 9.63515C27.2115 10.3771 27.9724 10.9111 28.8703 11.2371ZM33.3988 9.3715C32.8681 9.82183 32.2306 10.1122 31.4863 10.2427C30.742 10.3731 30.0386 10.3177 29.3763 10.0765C28.7241 9.83345 28.1684 9.42113 27.7092 8.83952C27.2601 8.25612 26.9614 7.54127 26.8131 6.69497C26.663 5.83848 26.7008 5.06466 26.9265 4.37352C27.1606 3.67039 27.5429 3.09366 28.0736 2.64334C28.6042 2.19301 29.2468 1.90173 30.0013 1.76949C30.7558 1.63726 31.4592 1.69265 32.1113 1.93568C32.7635 2.17871 33.3141 2.59192 33.7631 3.17532C34.2206 3.74674 34.5244 4.46069 34.6745 5.31719C34.8228 6.16349 34.7799 6.9382 34.5458 7.64133C34.3219 8.34267 33.9396 8.91939 33.3988 9.3715ZM12.7556 13.9611C12.1984 13.0642 11.9008 12.134 11.8628 11.1705C11.8193 10.1981 12.0193 9.29397 12.4627 8.45794C12.9148 7.61644 13.5674 6.93075 14.4203 6.40086C15.4227 5.77811 16.4478 5.47638 17.4957 5.49567C18.5435 5.51496 19.5148 5.86212 20.4095 6.53718L18.9718 7.43033C18.3727 7.03479 17.7384 6.83776 17.069 6.83925C16.4085 6.83527 15.7441 7.04086 15.0758 7.45603C14.4339 7.85481 13.9508 8.3621 13.6266 8.9779C13.3023 9.5937 13.1672 10.2687 13.2211 11.003C13.2697 11.7284 13.5234 12.4604 13.9822 13.199C14.4356 13.9289 14.9795 14.4806 15.6138 14.8543C16.2427 15.2192 16.905 15.3927 17.6007 15.3748C18.2964 15.357 18.9652 15.1486 19.6071 14.7499C20.2754 14.3347 20.7568 13.8345 21.0514 13.2494C21.3493 12.65 21.4536 11.9941 21.3645 11.2817L22.8021 10.3885C23.0055 11.4809 22.8837 12.501 22.4367 13.449C21.9843 14.3881 21.2569 15.1691 20.2545 15.7918C19.4015 16.3217 18.5004 16.6073 17.5512 16.6487C16.6052 16.6757 15.7088 16.4588 14.8618 15.9978C14.0149 15.5369 13.3128 14.858 12.7556 13.9611ZM14.1508 20.5293L6.29258 13.0875L5.32098 14.1135L13.1792 21.5553L14.1508 20.5293ZM37.6664 67.0355L37.5852 66.9421L37.8671 66.6974L38.149 66.4527L38.1637 66.4697L38.1785 66.4527L38.4604 66.6974L38.7423 66.9421L38.6611 67.0355C38.5654 67.1453 38.4825 67.2399 38.4133 67.3185C38.2509 67.5027 38.1637 67.5993 38.1637 67.5993C38.1637 67.5993 38.0766 67.5027 37.9142 67.3185C37.845 67.2399 37.7621 67.1453 37.6664 67.0355ZM39.6188 65.3367L39.9051 65.5762C40.2452 65.1696 40.6265 64.708 41.0408 64.1972L40.7509 63.9621L40.461 63.7269C40.0492 64.2346 39.6703 64.6933 39.3325 65.0972L39.6188 65.3367ZM41.8558 62.58L42.149 62.8111C42.5008 62.3646 42.8678 61.8928 43.2464 61.3981L42.9499 61.1712L42.6535 60.9444C42.2771 61.4361 41.9124 61.9052 41.5626 62.349L41.8558 62.58ZM45.3713 58.5372C45.0151 59.0318 44.6631 59.5127 44.3174 59.978L44.0177 59.7553L43.7181 59.5327C44.0617 59.0703 44.4116 58.5924 44.7655 58.1009L45.0684 58.319L45.3713 58.5372ZM46.0979 56.8657L46.4042 57.079C46.7387 56.5988 47.0749 56.108 47.4109 55.6081L47.1011 55.3999L46.7913 55.1917C46.4577 55.6879 46.1239 56.1753 45.7916 56.6523L46.0979 56.8657ZM48.0786 53.9176L48.3921 54.1203C48.7124 53.6249 49.0309 53.1223 49.3461 52.6137L49.0287 52.4171L48.7114 52.2205C48.399 52.7248 48.083 53.2234 47.7652 53.7149L48.0786 53.9176ZM49.9483 50.8978L50.2697 51.0877C50.5716 50.5767 50.8686 50.0609 51.1593 49.5416L50.8336 49.3593L50.5078 49.177C50.2201 49.691 49.926 50.2017 49.6269 50.708L49.9483 50.8978ZM51.6803 47.8005L52.0106 47.9743C52.2883 47.4466 52.5581 46.9163 52.8184 46.3847L52.4831 46.2206L52.1478 46.0564C51.8909 46.5812 51.6245 47.105 51.3499 47.6267L51.6803 47.8005ZM53.2356 44.6185L53.5761 44.7715C53.8218 44.2245 54.0559 43.6772 54.2767 43.1309L53.9306 42.991L53.5846 42.8511C53.3675 43.3881 53.1372 43.9266 52.8951 44.4656L53.2356 44.6185ZM54.5577 41.3377L54.9097 41.4621C55.1106 40.8936 55.295 40.3276 55.4612 39.7654L55.1032 39.6596L54.7452 39.5538C54.583 40.1026 54.4026 40.6562 54.2057 41.2133L54.5577 41.3377ZM56.2462 36.294C56.1601 36.8694 56.0486 37.4525 55.9141 38.0416L55.5502 37.9585L55.1862 37.8753C55.3169 37.3032 55.4248 36.7387 55.5078 36.1835L55.877 36.2388L56.2462 36.294ZM56.0575 34.4965L56.4302 34.5169C56.4465 34.2185 56.4549 33.9228 56.4549 33.63C56.4549 33.33 56.4475 33.0308 56.4328 32.7325L56.06 32.7508L55.6872 32.7691C55.7012 33.0552 55.7083 33.3423 55.7083 33.63C55.7083 33.9086 55.7004 34.1907 55.6848 34.4762L56.0575 34.4965ZM55.8877 31.0009L56.257 30.9462C56.1689 30.3525 56.0519 29.765 55.9067 29.1856L55.5447 29.2764L55.1826 29.3671C55.3218 29.9228 55.434 30.4863 55.5185 31.0557L55.8877 31.0009ZM55.0342 27.5937L55.3856 27.468C55.1839 26.9043 54.9547 26.3508 54.6987 25.8096L54.3613 25.9692L54.0238 26.1288C54.2693 26.6479 54.4892 27.1788 54.6827 27.7195L55.0342 27.5937ZM53.5324 24.4184L53.8526 24.2265C53.5455 23.7142 53.2129 23.216 52.8554 22.734L52.5556 22.9564L52.2557 23.1788C52.5986 23.6411 52.9177 24.1189 53.2122 24.6103L53.5324 24.4184ZM51.44 21.5972L51.7166 21.3465C51.5161 21.1252 51.3097 20.9084 51.0975 20.6963C50.8854 20.4841 50.6686 20.2777 50.4473 20.0772L50.1966 20.3538L49.9459 20.6304C50.1581 20.8227 50.3661 21.0207 50.5696 21.2242C50.7731 21.4277 50.9711 21.6357 51.1634 21.8479L51.44 21.5972ZM48.8374 19.2382L49.0598 18.9384C48.5778 18.5809 48.0796 18.2482 47.5673 17.9412L47.3754 18.2614L47.1835 18.5816C47.6749 18.8761 48.1527 19.1952 48.615 19.5381L48.8374 19.2382ZM45.8246 17.4325L45.9842 17.0951C45.443 16.8391 44.8895 16.6099 44.3258 16.4082L44.2001 16.7596L44.0743 17.1111C44.615 17.3046 45.1459 17.5245 45.665 17.77L45.8246 17.4325ZM42.5174 16.2491L42.6081 15.887C42.0288 15.7419 41.4412 15.6249 40.8476 15.5368L40.7929 15.9061L40.7381 16.2753C41.3075 16.3598 41.871 16.472 42.4267 16.6112L42.5174 16.2491ZM39.043 15.7338L39.0613 15.3609C38.763 15.3463 38.4638 15.3389 38.1637 15.3389C37.8637 15.3389 37.5645 15.3463 37.2662 15.3609L37.2845 15.7338L37.3028 16.1066C37.5889 16.0926 37.876 16.0855 38.1637 16.0855C38.4515 16.0855 38.7386 16.0926 39.0247 16.1066L39.043 15.7338ZM35.5346 15.9061L35.4799 15.5368C34.8863 15.6249 34.2987 15.7419 33.7194 15.887L33.8101 16.2491L33.9008 16.6112C34.4565 16.472 35.02 16.3598 35.5894 16.2753L35.5346 15.9061ZM32.1274 16.7596L32.0017 16.4082C31.438 16.6099 30.8845 16.8391 30.3433 17.0951L30.5029 17.4325L30.6625 17.77C31.1816 17.5245 31.7125 17.3046 32.2532 17.1111L32.1274 16.7596ZM28.9521 18.2614L28.7602 17.9412C28.2479 18.2482 27.7497 18.5809 27.2677 18.9384L27.4901 19.2382L27.7125 19.5381C28.1748 19.1952 28.6526 18.8761 29.144 18.5816L28.9521 18.2614ZM26.1309 20.3538L25.8802 20.0772C25.6589 20.2777 25.4421 20.4841 25.23 20.6963C25.0178 20.9084 24.8114 21.1252 24.6109 21.3465L24.8875 21.5972L25.1641 21.8479C25.3564 21.6357 25.5544 21.4277 25.7579 21.2242C25.9614 21.0207 26.1694 20.8227 26.3816 20.6304L26.1309 20.3538ZM22.4749 24.2265C22.7819 23.7142 23.1146 23.216 23.4721 22.734L23.7719 22.9564L24.0718 23.1787C23.7289 23.6411 23.4098 24.1189 23.1153 24.6103L22.7951 24.4184L22.4749 24.2265ZM21.9662 25.9692L21.6288 25.8096C21.3728 26.3508 21.1436 26.9043 20.9419 27.468L21.2933 27.5937L21.6448 27.7195C21.8383 27.1788 22.0582 26.6479 22.3037 26.1288L21.9662 25.9692ZM20.7828 29.2764L20.4207 29.1856C20.2756 29.765 20.1586 30.3525 20.0705 30.9462L20.4398 31.0009L20.809 31.0557C20.8935 30.4863 21.0057 29.9228 21.1449 29.3671L20.7828 29.2764ZM20.2675 32.7508L19.8946 32.7325C19.88 33.0308 19.8726 33.33 19.8726 33.63C19.8726 33.9228 19.881 34.2185 19.8973 34.5169L20.27 34.4965L20.6427 34.4762C20.6271 34.1907 20.6192 33.9086 20.6192 33.63C20.6192 33.3423 20.6263 33.0552 20.6403 32.7691L20.2675 32.7508ZM20.4505 36.2388L20.0813 36.294C20.1674 36.8694 20.2789 37.4525 20.4134 38.0416L20.7773 37.9585L21.1413 37.8754C21.0106 37.3032 20.9027 36.7387 20.8197 36.1835L20.4505 36.2388ZM21.2243 39.6596L20.8663 39.7654C21.0324 40.3276 21.2169 40.8936 21.4178 41.4621L21.7698 41.3377L22.1218 41.2133C21.9249 40.6562 21.7445 40.1026 21.5823 39.5538L21.2243 39.6596ZM22.3969 42.991L22.0508 43.1309C22.2716 43.6772 22.5057 44.2245 22.7514 44.7715L23.0919 44.6185L23.4324 44.4656C23.1903 43.9266 22.96 43.3881 22.7429 42.8511L22.3969 42.991ZM23.8444 46.2206L23.5091 46.3847C23.7694 46.9163 24.0392 47.4466 24.3169 47.9743L24.6472 47.8005L24.9776 47.6267C24.703 47.105 24.4366 46.5812 24.1797 46.0564L23.8444 46.2206ZM25.4939 49.3593L25.1682 49.5416C25.4589 50.061 25.7559 50.5767 26.0578 51.0877L26.3792 50.8978L26.7006 50.708C26.4015 50.2017 26.1074 49.691 25.8197 49.177L25.4939 49.3593ZM27.2987 52.417L26.9814 52.6136C27.2966 53.1223 27.6151 53.6249 27.9354 54.1203L28.2489 53.9176L28.5623 53.7149C28.2445 53.2234 27.9285 52.7248 27.6161 52.2205L27.2987 52.417ZM29.2264 55.3999L28.9166 55.6081C29.2526 56.108 29.5888 56.5988 29.9233 57.0791L30.2296 56.8657L30.5359 56.6523C30.2036 56.1753 29.8698 55.6879 29.5362 55.1917L29.2264 55.3999ZM31.2591 58.319L30.9562 58.5372C31.3124 59.0318 31.6644 59.5127 32.0101 59.978L32.3098 59.7553L32.6094 59.5327C32.2658 59.0703 31.9159 58.5924 31.562 58.1009L31.2591 58.319ZM34.1785 62.8111C33.8267 62.3646 33.4597 61.8928 33.0811 61.3981L33.3776 61.1712L33.674 60.9444C34.0504 61.4361 34.4151 61.9052 34.7649 62.349L34.4717 62.58L34.1785 62.8111ZM35.5766 63.9621L35.2867 64.1972C35.701 64.708 36.0823 65.1696 36.4224 65.5762L36.7087 65.3367L36.9951 65.0972C36.6572 64.6933 36.2783 64.2346 35.8665 63.7269L35.5766 63.9621ZM34.3364 38.8013C35.3515 39.8163 36.7282 40.3866 38.1637 40.3866C38.8745 40.3866 39.5784 40.2466 40.2351 39.9746C40.8918 39.7026 41.4885 39.3039 41.9911 38.8013C42.4937 38.2986 42.8924 37.702 43.1644 37.0453C43.4364 36.3886 43.5764 35.6847 43.5764 34.9739C43.5764 33.5384 43.0062 32.1617 41.9911 31.1466C40.976 30.1315 39.5993 29.5612 38.1637 29.5612C36.7282 29.5612 35.3515 30.1315 34.3364 31.1466C33.3213 32.1617 32.7511 33.5384 32.7511 34.9739C32.7511 36.4095 33.3213 37.7862 34.3364 38.8013ZM27.4472 24.2574C30.2894 21.4152 34.1443 19.8184 38.1637 19.8184C42.1832 19.8184 46.0381 21.4152 48.8803 24.2574C51.7225 27.0996 53.3192 30.9544 53.3192 34.9739C53.3192 46.3405 38.1637 63.1198 38.1637 63.1198C38.1637 63.1198 23.0082 46.3405 23.0082 34.9739C23.0082 30.9544 24.605 27.0996 27.4472 24.2574ZM12.2346 42.3093C12.5057 42.1024 12.7811 41.8954 13.0607 41.6883L12.5151 40.9513C12.2319 41.1609 11.9528 41.3707 11.6781 41.5805L12.2346 42.3093ZM9.05368 44.915C9.55451 44.4718 10.0764 44.0284 10.6189 43.5849L10.0385 42.8749C9.48731 43.3256 8.95624 43.7767 8.44593 44.2283L9.05368 44.915ZM6.1173 47.7768C6.56654 47.2885 7.04309 46.7999 7.54623 46.311L6.90717 45.6533C6.39261 46.1533 5.90405 46.6541 5.44241 47.1559L6.1173 47.7768ZM3.57955 50.961C3.94564 50.4157 4.34805 49.8698 4.78591 49.3232L4.07022 48.7499C3.61752 49.3149 3.19968 49.8815 2.81815 50.4499L3.57955 50.961ZM1.70748 54.5323C1.93582 53.9216 2.21257 53.31 2.53669 52.6974L1.7261 52.2685C1.38492 52.9134 1.09163 53.5609 0.848506 54.2112L1.70748 54.5323ZM0.916677 58.4294C0.935563 57.7703 1.01374 57.1115 1.14962 56.4527L0.251477 56.2674C0.105162 56.9768 0.0204697 57.6888 0 58.4031L0.916677 58.4294ZM1.51298 62.35C1.29577 61.7014 1.13894 61.0557 1.04009 60.4126L0.133682 60.5519C0.240702 61.2482 0.410122 61.9446 0.64338 62.6412L1.51298 62.35ZM3.31778 65.9296C2.9259 65.3485 2.58438 64.7704 2.29146 64.1951L1.47426 64.6113C1.78523 65.2219 2.14602 65.8323 2.55745 66.4424L3.31778 65.9296ZM13.1219 59.1647C13.3357 58.9375 13.5703 58.7461 13.8219 58.5877L13.3331 57.8117C13.0166 58.0111 12.7218 58.2518 12.4542 58.5361C12.2137 58.7916 11.9703 59.0557 11.7258 59.3281L12.4082 59.9406C12.6475 59.6741 12.886 59.4153 13.1219 59.1647ZM15.552 58.0057C16.1518 57.9387 16.7929 57.9785 17.4453 58.115L17.6331 57.2174C16.8997 57.064 16.1601 57.015 15.4501 57.0944L15.552 58.0057ZM9.78667 63.2286C10.1891 62.6474 10.6118 62.0856 11.0438 61.5462L10.328 60.9729C9.88432 61.5269 9.44869 62.1058 9.0327 62.7066L9.78667 63.2286ZM7.73201 66.8565C8.00713 66.2235 8.32257 65.6028 8.66837 64.9972L7.872 64.5425C7.51161 65.1736 7.18079 65.8241 6.89096 66.491L7.73201 66.8565ZM19.2763 58.7418C19.8586 59.0196 20.4186 59.365 20.9316 59.7651L21.4956 59.0419C20.9298 58.6007 20.3131 58.2204 19.6713 57.9141L19.2763 58.7418ZM4.53698 67.5512C4.72983 67.7837 4.93083 68.0166 5.14007 68.25C5.47491 68.3993 5.79872 68.5481 6.11227 68.6959C6.12488 68.6491 6.13773 68.6024 6.15082 68.5558L7.03378 68.8035C6.8476 69.4671 6.71334 70.1398 6.64093 70.8189L5.72905 70.7217C5.79404 70.1121 5.90478 69.5104 6.05416 68.9185L5.75907 69.5433C5.41183 69.3793 5.05209 69.214 4.67868 69.0484L4.58964 69.0089L4.52434 68.9367C4.28338 68.67 4.05234 68.4033 3.83116 68.1367L4.53698 67.5512ZM9.46108 70.3901L9.45915 70.3891L9.40951 70.363C9.05765 70.1776 8.68998 69.984 8.30522 69.7848L7.88356 70.5991C8.26505 70.7967 8.63005 70.9888 8.98202 71.1743L9.03237 71.2008C9.36591 71.3766 9.68821 71.5464 9.99975 71.7078L10.4216 70.8935C10.1156 70.735 9.79874 70.568 9.46743 70.3935L9.46426 70.3918L9.46171 70.3905L9.46108 70.3901ZM22.3107 61.1235C22.7174 61.6367 23.044 62.1903 23.2678 62.7691L24.1231 62.4384C23.8623 61.7636 23.4864 61.1306 23.0295 60.554L22.3107 61.1235ZM6.99935 74.8588C6.79963 74.1884 6.67567 73.5211 6.61789 72.8591L5.70431 72.9388C5.76737 73.6613 5.90271 74.3896 6.12046 75.1206L6.99935 74.8588ZM23.6085 64.6001C23.6008 65.1899 23.4791 65.7982 23.2166 66.4155L24.0606 66.7743C24.369 66.0488 24.5163 65.3227 24.5254 64.612L23.6085 64.6001ZM14.7065 72.4428C14.0162 72.3974 13.3147 72.2065 12.54 71.8963L12.1991 72.7476C13.028 73.0795 13.8277 73.304 14.6463 73.3579L14.7065 72.4428ZM8.2816 77.6433C8.09323 77.3451 7.92239 77.0474 7.76819 76.7502L6.95421 77.1726C7.12061 77.4933 7.30439 77.8135 7.50631 78.1331C7.72576 78.4804 7.95084 78.8133 8.18213 79.1315L8.92398 78.5924C8.70508 78.2912 8.49111 77.9749 8.2816 77.6433ZM22.2042 68.0283C22.0049 68.2652 21.7817 68.5025 21.5329 68.7394C21.2317 69.0262 20.9412 69.2937 20.6605 69.543L21.2694 70.2287C21.5589 69.9717 21.8572 69.6969 22.1652 69.4036C22.4371 69.1447 22.6837 68.8828 22.906 68.6187L22.2042 68.0283ZM18.8383 71.0024C18.1102 71.512 17.4575 71.8674 16.8519 72.0988L17.1793 72.9554C17.8713 72.6909 18.5906 72.2952 19.3641 71.7537L18.8383 71.0024ZM12.1495 81.716C11.5301 81.3234 10.9476 80.8574 10.3962 80.3156L9.75349 80.9698C10.3481 81.554 10.981 82.0611 11.6586 82.4906L12.1495 81.716ZM16.3533 83.2099C15.5738 83.1026 14.8457 82.929 14.1626 82.6895L13.8592 83.5549C14.6042 83.8161 15.3924 84.0033 16.2283 84.1184L16.3533 83.2099ZM20.9091 83.1679C20.1065 83.2696 19.346 83.3262 18.624 83.3378L18.6387 84.2547C19.398 84.2425 20.1924 84.1832 21.0244 84.0777L20.9091 83.1679ZM25.4394 82.241C24.6576 82.4516 23.9071 82.6319 23.1862 82.7821L23.3731 83.6798C24.1131 83.5258 24.8809 83.3412 25.6779 83.1265L25.4394 82.241ZM29.8809 80.8443C29.1202 81.1129 28.3839 81.36 27.6709 81.5855L27.9475 82.4598C28.6709 82.231 29.4169 81.9807 30.1862 81.709L29.8809 80.8443ZM33.1658 79.6125C32.7968 79.7582 32.4328 79.8996 32.0738 80.0369L32.4013 80.8934C32.7635 80.755 33.1305 80.6123 33.5025 80.4655L33.1658 79.6125ZM33.5607 82.0385C33.4674 82.0377 33.4027 82.0083 33.3666 81.9502C33.357 81.9348 33.3384 81.9138 33.3171 81.8896C33.2584 81.823 33.1788 81.7328 33.2086 81.6712L34.2398 79.4295L32.0078 79.3557C31.9208 79.3549 31.6675 79.2208 31.6306 79.1614C31.5936 79.1021 31.5954 79.0303 31.6358 78.9463C31.6763 78.8622 31.7423 78.7917 31.8338 78.7348C31.9253 78.6778 32.0176 78.6498 32.1107 78.6507L35.2477 78.6813C35.285 78.6816 35.3154 78.6882 35.339 78.701C35.3625 78.7138 35.3813 78.7315 35.3952 78.7543C35.4092 78.7769 35.4168 78.8016 35.4179 78.8284C35.419 78.8552 35.4115 78.8853 35.3955 78.9188L34.0315 81.7513C33.9937 81.8297 33.9291 81.8974 33.8376 81.9544C33.7461 82.0113 33.6538 82.0394 33.5607 82.0385ZM56.1331 4.32511L51.5846 14.1457L50.3025 13.5518L54.851 3.73125L56.1331 4.32511ZM59.7259 8.9936C58.8247 9.33677 58.0379 9.91537 57.3654 10.7294C56.693 11.5435 56.2733 12.4253 56.1064 13.3751C55.9395 14.3248 56.0196 15.2436 56.3468 16.1316C56.6886 17.0181 57.2466 17.7812 58.0207 18.4207C58.9305 19.1723 59.9026 19.6128 60.937 19.7422C61.978 19.8637 62.9837 19.6539 63.9543 19.1129L62.6494 18.035C62.0026 18.3466 61.3477 18.4568 60.6846 18.3655C60.036 18.2729 59.4085 17.976 58.802 17.4749C58.2194 16.9937 57.8087 16.4262 57.57 15.7724C57.3312 15.1187 57.2846 14.4356 57.43 13.7233C57.582 13.0029 57.9316 12.3115 58.4788 11.6491C59.0326 10.9787 59.6455 10.5049 60.3176 10.2277C60.9964 9.94245 61.6792 9.85536 62.3663 9.9664C63.0533 10.0774 63.6882 10.3736 64.2708 10.8549C64.8773 11.3559 65.284 11.9202 65.4908 12.5475C65.7056 13.1815 65.721 13.8454 65.5371 14.5394L66.8419 15.6174C67.1966 14.5542 67.216 13.5229 66.9003 12.5236C66.5845 11.5242 65.9717 10.6488 65.0619 9.89719C64.2878 9.25768 63.4298 8.85777 62.4881 8.69745C61.5543 8.54373 60.6336 8.64245 59.7259 8.9936ZM79.8216 28.1357L78.4787 28.7048L77.0175 25.2568L65.7117 30.0481L65.0119 28.3967L76.3176 23.6054L74.8487 20.1393L76.1916 19.5702L79.8216 28.1357ZM67.9952 36.1489C67.4562 37.2279 67.2179 38.4038 67.2804 39.6769C67.3436 40.963 67.6963 42.1165 68.3384 43.1374C68.9937 44.1577 69.8677 44.9436 70.9603 45.4951C72.053 46.0466 73.2753 46.2891 74.627 46.2227C75.9788 46.1563 77.1714 45.7952 78.2048 45.1393C79.2381 44.4834 80.0243 43.6159 80.5633 42.537C81.1155 41.4575 81.36 40.2746 81.2968 38.9885C81.2343 37.7154 80.8754 36.5688 80.2201 35.5485C79.578 34.5276 78.7037 33.7352 77.5972 33.1712C76.5045 32.6197 75.2889 32.3769 73.9502 32.4426C72.6116 32.5083 71.419 32.8695 70.3725 33.5261C69.3398 34.1951 68.5473 35.0694 67.9952 36.1489ZM69.6316 42.1465C69.148 41.4072 68.8827 40.5585 68.8356 39.6005C68.7886 38.6424 68.9691 37.7653 69.3773 36.9691C69.7862 36.186 70.393 35.551 71.1979 35.0642C72.0034 34.5905 72.9509 34.3269 74.0401 34.2734C75.1426 34.2192 76.1112 34.3887 76.9462 34.7819C77.7949 35.1875 78.4611 35.7599 78.9447 36.4992C79.4283 37.2384 79.6939 38.0937 79.7416 39.0648C79.7893 40.036 79.6087 40.9131 79.1999 41.6962C78.7911 42.4794 78.1839 43.1077 77.3784 43.5814C76.5866 44.0676 75.6395 44.3378 74.5371 44.3919C73.4478 44.4454 72.4788 44.2694 71.6301 43.8638C70.782 43.4713 70.1159 42.8988 69.6316 42.1465ZM79.5299 51.9067L71.3261 49.0348C70.1728 48.631 69.2193 48.6105 68.4659 48.9732C67.7081 49.3483 67.1534 50.0381 66.8017 51.0427C66.4544 52.0348 66.4621 52.9076 66.8248 53.661C67.1832 54.4269 67.939 55.0117 69.0924 55.4155L77.2962 58.2874L76.7035 59.9802L68.5184 57.1148C67.4394 56.7371 66.6039 56.201 66.0117 55.5064C65.432 54.8162 65.0925 54.0361 64.9934 53.1661C64.8899 52.3085 64.9987 51.4208 65.32 50.5031C65.6413 49.5853 66.112 48.8174 66.7321 48.1992C67.3479 47.5934 68.0977 47.2015 68.9813 47.0236C69.873 46.8624 70.8584 46.9707 71.9373 47.3484L80.1225 50.2138L79.5299 51.9067ZM55.4132 64.1218C54.6348 64.2479 53.8645 64.5564 53.1023 65.0473C52.3069 65.5595 51.716 66.1588 51.3297 66.8452C50.9434 67.5315 50.7611 68.2193 50.783 68.9085C50.8048 69.5978 50.9972 70.2241 51.36 70.7875C51.8295 71.5166 52.3652 71.9844 52.9669 72.1907C53.5758 72.4082 54.1762 72.4669 54.7683 72.367C55.3674 72.2781 56.1157 72.0931 57.0131 71.8122C57.7567 71.5834 58.3479 71.4215 58.7868 71.3264C59.2217 71.2495 59.6461 71.2654 60.0598 71.374C60.4626 71.4897 60.7991 71.7575 61.0694 72.1773C61.4465 72.7628 61.5393 73.3438 61.3479 73.9203C61.1636 74.5078 60.7566 75.0043 60.1269 75.4098C59.453 75.8438 58.8015 76.0211 58.1722 75.9419C57.55 75.8737 57.069 75.6364 56.7292 75.2301L55.0721 76.2972C55.7367 77.1351 56.5913 77.6007 57.6359 77.6938C58.6694 77.794 59.7275 77.4956 60.8101 76.7984C61.5614 76.3147 62.1444 75.7517 62.5591 75.1095C62.9628 74.4744 63.1684 73.8107 63.1757 73.1183C63.1831 72.4259 62.984 71.7649 62.5785 71.1352C62.1161 70.4171 61.586 69.9458 60.9882 69.7213C60.3864 69.5149 59.7951 69.4581 59.2141 69.5509C58.622 69.6509 57.8808 69.8469 56.9905 70.1389C56.2652 70.3715 55.674 70.5335 55.2169 70.6246C54.7599 70.7158 54.3209 70.7015 53.9 70.5818C53.4791 70.4621 53.1264 70.1814 52.8418 69.7395C52.479 69.176 52.3901 68.5769 52.5752 67.942C52.7563 67.3253 53.2059 66.7857 53.9239 66.3233C54.6752 65.8395 55.367 65.6519 55.9995 65.7603C56.628 65.887 57.1442 66.2031 57.548 66.7089L59.1554 65.6738C58.7388 65.0512 58.2028 64.6071 57.5473 64.3416C56.899 64.0871 56.1876 64.0138 55.4132 64.1218ZM58.632 61.2236L65.058 62.2056L66.4197 60.5185L62.0485 56.9905L63.175 55.5948L73.8651 64.2229L72.8147 65.5243L71.7596 64.7623L70.1918 66.5541L71.1833 67.5456L71.0799 67.6738C70.4279 68.4815 69.7411 69.0501 69.0194 69.3794C68.2895 69.7189 67.5779 69.837 66.8847 69.7334C66.1916 69.6299 65.5433 69.3346 64.9401 68.8477C64.2039 68.2536 63.7279 67.5148 63.5121 66.6315C63.2881 65.7584 63.4266 64.8232 63.9275 63.826L57.2827 62.8954L58.632 61.2236ZM67.5393 61.4221L65.8805 63.4773C65.2699 64.234 64.9959 64.95 65.0586 65.6254C65.1316 66.3091 65.48 66.9026 66.1037 67.406C66.7376 67.9177 67.3811 68.1246 68.0341 68.0269C68.6788 67.9394 69.3107 67.5122 69.9296 66.7454L71.5884 64.6902L67.5393 61.4221Z" fill="#FF5C00"/>
</svg>
